<?xml version="1.0" standalone="no"?>
<!DOCTYPE svg PUBLIC "-//W3C//DTD SVG 20010904//EN"
 "http://www.w3.org/TR/2001/REC-SVG-20010904/DTD/svg10.dtd">
<svg version="1.0" xmlns="http://www.w3.org/2000/svg"
 width="500.000000pt" height="500.000000pt" viewBox="0 0 500.000000 500.000000"
 preserveAspectRatio="xMidYMid meet">
<metadata>
Created by potrace 1.14, written by Peter Selinger 2001-2017
</metadata>
<g transform="translate(0.000000,500.000000) scale(0.100000,-0.100000)"
fill="#000000" stroke="none">
<path d="M135 4976 c-60 -28 -87 -56 -114 -116 -21 -45 -21 -51 -21 -2360 l0
-2315 24 -50 c27 -59 67 -96 128 -119 39 -15 244 -16 2364 -14 l2321 3 49 30
c30 19 60 49 79 79 l30 49 0 2336 c0 2261 -1 2337 -19 2371 -26 49 -55 79
-101 103 l-40 22 -2325 2 -2325 3 -50 -24z m2970 -2268 c169 -491 338 -982
376 -1090 l68 -198 -247 0 -247 0 -74 233 c-41 127 -79 240 -83 250 -8 16 -35
17 -401 15 l-392 -3 -81 -245 -80 -245 -248 -3 c-209 -2 -247 0 -243 12 8 20
684 1974 719 2079 l30 87 297 0 298 0 308 -892z"/>
<path d="M2487 3093 c-2 -4 -62 -186 -132 -403 -70 -217 -130 -401 -132 -407
-4 -10 54 -13 270 -13 152 0 278 3 280 8 6 11 -260 816 -271 820 -6 2 -12 -1
-15 -5z"/>
</g>
</svg>
