<?xml version="1.0" standalone="no"?>
<!DOCTYPE svg PUBLIC "-//W3C//DTD SVG 20010904//EN"
 "http://www.w3.org/TR/2001/REC-SVG-20010904/DTD/svg10.dtd">
<svg version="1.0" xmlns="http://www.w3.org/2000/svg"
 width="800.000000pt" height="800.000000pt" viewBox="0 0 800.000000 800.000000"
 preserveAspectRatio="xMidYMid meet">
<metadata>
Created by potrace 1.14, written by Peter Selinger 2001-2017
</metadata>
<g transform="translate(0.000000,800.000000) scale(0.100000,-0.100000)"
fill="#000000" stroke="none">
<path d="M0 4000 l0 -4000 4000 0 4000 0 0 4000 0 4000 -4000 0 -4000 0 0
-4000z m4021 2276 c14 -2 45 -14 70 -27 24 -13 47 -24 52 -25 4 -1 9 -2 12 -3
3 0 7 -1 10 -1 3 0 19 -7 37 -16 28 -15 30 -15 25 0 -8 19 5 20 56 2 20 -8 37
-11 37 -7 0 7 7 8 70 14 44 5 74 -9 66 -30 -5 -11 -2 -13 9 -9 9 3 13 2 10 -4
-3 -6 -2 -10 4 -10 5 0 14 6 18 14 6 12 11 10 20 -10 8 -18 8 -22 0 -17 -7 3
-2 -5 10 -18 28 -31 66 -134 99 -269 30 -119 40 -195 26 -186 -5 3 -25 -3 -45
-13 -20 -10 -34 -14 -31 -9 4 6 -4 4 -17 -3 -13 -7 -33 -14 -44 -16 -10 -2
-22 -8 -25 -12 -3 -5 -18 -13 -33 -16 -15 -4 -32 -15 -37 -24 -5 -10 -29 -29
-54 -42 -26 -13 -46 -28 -46 -33 0 -5 8 -2 17 5 9 8 7 0 -7 -18 -23 -32 -39
-46 -24 -21 4 7 3 8 -4 4 -6 -4 -9 -13 -5 -21 3 -9 1 -21 -4 -28 -10 -12 -14
-37 -17 -92 -1 -23 3 -30 19 -30 11 0 26 4 33 9 8 6 8 -2 -3 -27 -8 -20 -15
-38 -15 -39 0 -5 55 0 77 7 13 4 20 11 17 16 -3 5 3 9 13 9 17 1 17 2 -1 15
-17 13 -18 15 -3 15 9 0 17 5 17 11 0 8 6 7 17 -2 9 -8 14 -9 10 -3 -4 7 0 14
8 18 11 4 15 -2 15 -20 0 -14 5 -34 10 -45 9 -15 7 -19 -7 -19 -15 0 -15 -2 2
-14 11 -8 23 -12 27 -10 4 2 9 0 13 -6 3 -5 14 -10 24 -10 10 0 21 -8 24 -19
4 -17 -1 -18 -57 -15 -33 2 -66 5 -73 6 -6 1 -14 12 -18 25 -5 23 -35 33 -35
12 0 -5 -5 -7 -11 -3 -6 3 -15 0 -20 -7 -13 -21 -11 -32 6 -25 8 3 15 1 15 -4
0 -6 9 -10 19 -10 11 0 23 -5 26 -11 4 -6 13 -8 20 -5 7 2 16 2 19 -2 4 -3 15
-7 26 -9 11 -1 23 -3 27 -4 23 -4 51 3 69 15 15 12 17 17 7 27 -7 7 -13 18
-13 24 0 5 4 3 10 -5 8 -12 10 -12 16 3 3 9 11 14 18 10 20 -13 38 -12 32 2
-3 9 0 12 9 9 8 -3 17 -22 20 -42 3 -21 22 -89 42 -152 33 -104 37 -128 41
-255 3 -122 -6 -276 -22 -340 -2 -11 -5 -22 -5 -24 -2 -7 -41 42 -41 50 0 16
-42 47 -70 53 -21 4 -31 13 -36 31 -7 27 -20 33 -27 13 -6 -19 -57 10 -70 40
-8 18 -7 26 6 39 12 12 15 13 14 2 -2 -8 -6 -19 -9 -25 -4 -6 -1 -11 5 -11 7
0 14 9 14 19 1 10 11 31 22 47 12 16 21 35 21 43 -1 8 -4 7 -11 -5 -6 -9 -14
-15 -19 -12 -5 3 -15 -3 -22 -14 -15 -20 -42 -22 -74 -4 -12 7 -24 9 -28 6 -3
-3 -6 -1 -6 6 0 7 -5 9 -11 6 -6 -4 -20 2 -32 13 -32 29 -87 54 -103 48 -8 -3
-14 -2 -14 2 0 4 -9 8 -20 8 -11 0 -20 -4 -20 -7 0 -4 -12 -8 -27 -8 -47 0
-82 -14 -145 -55 -26 -17 -28 -17 -34 -1 -7 18 38 64 64 65 6 0 12 5 12 12 0
6 -3 8 -7 5 -3 -4 -13 -1 -21 6 -13 10 -14 9 -8 -1 8 -13 -9 -42 -24 -42 -5 0
-7 11 -6 23 2 14 -2 24 -10 24 -7 0 -11 -9 -9 -19 2 -10 0 -18 -5 -18 -4 0
-19 -17 -31 -37 -13 -21 -25 -40 -28 -43 -16 -14 -31 -53 -31 -77 1 -20 10
-34 33 -48 38 -24 51 -67 17 -58 -15 4 -19 2 -15 -10 5 -11 -4 -17 -32 -24
-25 -6 -37 -15 -35 -24 3 -11 1 -12 -9 -1 -16 15 -29 16 -29 1 0 -5 6 -7 13
-4 6 4 4 0 -7 -9 -24 -19 -74 -10 -97 18 -14 17 -19 18 -33 7 -9 -7 -16 -22
-16 -32 0 -25 -16 -32 -33 -14 -13 13 -16 13 -21 -1 -3 -8 -2 -12 4 -9 6 3 10
2 10 -4 0 -5 8 -12 18 -14 11 -3 9 -5 -8 -6 -20 -1 -22 -3 -10 -11 10 -7 11
-10 2 -10 -7 0 -15 7 -18 15 -4 8 -10 15 -16 15 -5 0 -6 -6 -3 -12 4 -7 -2 -3
-13 10 -11 12 -22 17 -24 11 -6 -18 -95 10 -101 32 -3 12 -12 17 -25 14 -19
-3 -19 -2 -6 23 18 35 18 56 -1 48 -10 -3 -15 1 -15 12 0 11 -3 13 -8 6 -5 -8
-13 -4 -25 11 -10 15 -13 26 -7 30 19 12 0 25 -21 15 -24 -13 -25 -30 -2 -30
14 0 15 -2 4 -12 -11 -11 -14 -10 -18 0 -3 6 -8 10 -13 7 -4 -3 -14 3 -21 13
-13 16 -13 16 5 2 18 -14 19 -14 12 5 -16 41 -24 75 -18 75 4 0 -1 5 -11 11
-9 6 -15 14 -12 20 3 5 -1 6 -10 3 -11 -5 -14 -2 -8 12 4 11 3 15 -5 10 -6 -3
-15 2 -21 11 -14 24 -14 8 0 -20 l10 -22 -18 21 c-19 22 -71 45 -59 26 3 -6
-1 -9 -11 -7 -10 2 -22 4 -26 4 -5 1 -6 5 -2 10 3 5 0 13 -7 18 -21 13 -37 12
-32 -2 4 -10 -1 -12 -17 -8 -15 4 -20 3 -15 -5 4 -7 18 -12 32 -12 15 0 23 -4
19 -10 -4 -6 -15 -8 -26 -5 -11 4 -19 2 -19 -5 0 -6 4 -9 8 -6 4 2 14 1 21 -3
10 -7 9 -9 -2 -14 -9 -3 -20 0 -25 6 -14 17 -22 76 -11 83 5 3 9 10 9 15 0 6
-5 7 -12 3 -8 -5 -9 -2 -5 10 4 10 3 15 -3 11 -6 -3 -10 2 -10 12 -1 17 -1 17
-11 0 -8 -14 -14 -16 -25 -6 -8 6 -14 19 -13 28 0 12 2 11 9 -4 8 -18 9 -19 9
-1 1 12 6 16 16 12 13 -4 14 -2 5 14 -12 22 -25 26 -35 9 -4 -6 -13 -8 -21 -5
-8 3 -14 0 -14 -6 0 -6 -2 -9 -5 -6 -3 3 -2 13 1 22 5 14 9 15 16 4 6 -9 7 -5
3 11 -6 18 -4 22 6 15 11 -6 11 -4 0 10 -8 9 -20 15 -28 12 -14 -6 -15 -2 -17
51 -1 17 -5 35 -10 40 -5 5 -6 2 -1 -6 5 -9 4 -12 -3 -7 -11 7 -6 31 11 54 6
8 6 12 -2 12 -13 0 -10 22 4 32 6 5 5 8 -2 8 -7 0 -13 5 -13 11 0 5 5 7 10 4
6 -3 10 -2 10 3 0 5 11 10 25 10 14 0 22 -5 18 -11 -3 -6 -1 -7 6 -3 6 4 9 11
6 16 -3 4 -2 10 2 13 5 2 1 2 -7 -1 -8 -2 -25 -5 -37 -6 -19 -3 -21 0 -12 15
10 20 24 25 32 12 2 -5 2 -2 1 5 -4 14 12 16 21 2 4 -6 11 -8 16 -4 6 3 3 12
-8 20 -10 7 -13 14 -6 14 6 0 15 -4 18 -10 3 -5 13 -10 21 -10 15 0 15 33 -1
47 -4 5 -5 3 -1 -4 3 -6 2 -14 -3 -17 -5 -4 -8 2 -6 11 1 10 8 17 14 16 6 -2
16 -4 22 -5 6 -2 14 3 17 11 3 8 0 11 -7 7 -7 -5 -9 -1 -5 9 6 14 8 14 19 -2
13 -17 14 -17 20 0 4 9 12 17 18 17 6 0 -1 -12 -14 -27 -23 -26 -30 -71 -8
-58 5 4 9 2 9 -4 0 -5 -6 -11 -12 -14 -10 -3 -9 -8 2 -22 14 -17 13 -18 -2
-12 -10 3 -20 2 -23 -4 -4 -5 -3 -8 2 -7 14 4 71 -26 69 -36 -2 -6 -1 -8 1 -3
3 4 11 7 19 7 9 0 12 -5 8 -12 -4 -7 -3 -8 4 -4 7 4 12 15 12 24 0 13 2 13 16
-4 8 -10 13 -13 9 -7 -4 8 11 6 39 -7 41 -17 47 -17 61 -4 8 9 15 12 15 8 0
-3 7 -1 15 6 13 10 19 9 36 -6 16 -14 19 -15 14 -2 -4 9 0 18 9 21 9 4 16 2
16 -3 0 -6 12 -10 28 -10 15 0 37 -7 48 -15 12 -8 24 -12 27 -9 3 3 15 1 26
-6 12 -6 21 -7 21 -3 0 9 30 14 83 16 15 0 27 4 27 9 0 4 7 5 15 2 11 -4 15 1
17 17 2 43 3 48 11 56 5 4 14 8 20 8 7 1 11 6 10 13 -4 18 1 15 26 -14 l22
-25 -41 -16 c-24 -10 -37 -20 -32 -25 13 -13 114 35 130 62 11 18 11 21 0 15
-7 -3 -3 2 9 13 12 11 20 22 17 25 -3 3 1 5 8 4 7 0 21 1 32 1 17 2 17 3 2 27
-9 14 -12 25 -7 25 5 0 13 -4 16 -10 3 -5 14 -10 25 -10 10 0 20 -7 24 -15 7
-19 -3 -47 -15 -39 -5 3 -9 1 -9 -5 0 -5 5 -11 12 -13 7 -3 8 -9 3 -19 -5 -8
-8 -22 -7 -31 2 -10 -1 -18 -6 -18 -14 0 -33 -48 -22 -55 6 -4 10 -15 10 -25
0 -20 33 -44 44 -32 4 3 4 -2 0 -12 -6 -15 -4 -17 6 -11 10 6 12 4 7 -8 -4
-10 -1 -17 6 -18 9 0 9 -2 0 -6 -7 -2 -13 -9 -13 -14 0 -11 22 -8 31 5 4 5 19
10 33 11 15 2 33 8 40 14 7 6 16 8 19 4 4 -3 7 -1 7 5 0 6 -4 14 -10 17 -15 9
-12 19 10 32 15 10 19 10 16 0 -1 -6 -1 -9 1 -4 3 4 10 4 15 1 7 -4 8 -2 4 4
-4 7 2 22 13 34 12 12 21 25 21 30 0 4 6 8 13 8 6 0 18 4 26 9 12 8 13 12 2
25 -10 12 -17 13 -26 6 -9 -8 -11 -4 -7 16 4 21 2 25 -9 19 -12 -7 -12 -6 -1
7 10 13 10 18 1 24 -8 5 -9 3 -4 -7 8 -12 6 -12 -8 0 -18 15 -23 26 -7 16 15
-9 13 -5 -32 85 -34 68 -39 86 -30 101 9 14 9 17 -1 14 -11 -5 -31 21 -62 77
-5 10 -18 21 -28 24 -9 3 -15 10 -12 15 4 5 0 9 -7 10 -31 3 -45 6 -75 18 -18
7 -33 17 -33 23 0 5 -4 7 -10 3 -15 -9 -61 6 -53 18 4 6 0 8 -10 4 -9 -3 -30
-2 -46 3 -20 5 -31 5 -31 -1 0 -6 -6 -7 -17 -1 -9 6 -29 6 -45 2 -15 -5 -28
-5 -28 0 0 5 -17 6 -37 4 -21 -3 -67 -7 -103 -9 -36 -2 -66 -4 -67 -4 -2 -1
-6 -1 -9 0 -4 0 -10 -3 -13 -8 -11 -16 -89 -52 -97 -45 -4 4 -4 2 -1 -4 4 -7
0 -17 -8 -24 -8 -7 -15 -9 -15 -6 0 4 -16 -5 -35 -20 -24 -18 -35 -22 -36 -13
0 8 -5 4 -11 -8 -6 -13 -15 -23 -20 -23 -4 0 -8 10 -7 23 0 12 3 16 6 9 4 -10
8 -9 18 5 9 13 10 22 3 30 -6 7 -8 13 -4 13 4 0 0 13 -8 28 -15 28 -14 29 13
27 17 -1 28 3 28 11 0 7 -5 11 -10 7 -5 -3 -6 4 -2 16 5 15 2 26 -9 34 -21 16
-10 54 17 61 12 3 18 8 14 12 -4 4 -1 14 6 23 10 14 10 14 -4 4 -17 -14 -32
-6 -59 32 -14 18 -13 19 1 8 16 -13 29 -8 29 9 0 5 -6 6 -12 2 -9 -6 -9 -3 0
9 8 9 11 25 7 36 -4 14 -1 21 12 23 10 3 -1 4 -24 4 -23 0 -39 -4 -37 -7 3 -6
-4 -6 -35 0 -2 1 3 9 10 18 12 15 12 16 -4 10 -11 -4 -16 -3 -12 3 3 6 -1 10
-10 10 -9 0 -15 6 -12 13 2 6 11 11 19 9 9 -1 18 4 21 11 7 19 52 16 52 -3 0
-10 -8 -14 -22 -12 -28 4 -37 -12 -16 -29 15 -12 16 -12 10 6 -7 19 -6 19 7 3
7 -10 22 -17 32 -17 17 1 17 2 2 6 -15 4 -16 8 -7 25 6 11 8 26 5 34 -3 9 -1
12 4 9 6 -3 10 -2 10 4 0 6 7 8 16 4 13 -5 13 -7 2 -14 -10 -7 -10 -9 2 -10
10 0 9 -3 -5 -10 l-20 -9 20 3 c22 3 29 42 11 67 -10 13 -9 13 8 0 18 -14 19
-13 14 7 -7 26 24 42 46 24 10 -8 17 -7 26 4 11 13 15 13 21 3 7 -10 9 -10 9
-1 0 13 34 13 46 0 11 -11 64 23 76 48 6 13 14 22 19 20 4 -3 11 0 15 6 4 8 3
9 -4 5 -8 -5 -12 0 -12 13 0 12 -5 21 -12 21 -6 0 -8 -3 -5 -7 4 -3 -1 -15
-10 -26 -10 -11 -12 -17 -5 -13 15 9 15 1 2 -25 -13 -23 -32 -26 -23 -2 5 12
3 14 -8 8 -12 -8 -12 -6 0 9 13 15 13 19 0 27 -10 6 -11 9 -1 9 7 0 10 4 7 10
-3 5 0 7 8 4 8 -3 18 -1 22 5 9 15 33 14 38 -1 2 -7 3 -1 1 15 -3 27 -3 27 21
11 15 -10 25 -12 25 -5 0 6 -4 11 -10 11 -5 0 -7 7 -4 15 5 12 10 13 20 4 11
-9 17 -9 28 0 7 6 22 8 31 4 14 -5 17 -3 12 10 -3 9 -2 19 4 22 5 4 7 11 4 16
-3 5 1 6 10 3 14 -6 14 -8 -2 -20 -17 -13 -17 -14 2 -7 11 3 23 11 28 17 5 8
10 7 16 -3 10 -16 18 -4 15 26 0 13 3 20 9 16 5 -3 23 -6 38 -5 16 0 29 -3 29
-8 0 -4 8 -11 18 -15 14 -5 15 -4 5 6 -22 22 -14 29 31 29 25 0 47 4 50 9 4 5
18 7 34 5 15 -3 39 -7 53 -8z m-783 -467 c-3 -8 -7 -3 -11 10 -4 17 -3 21 5
13 5 -5 8 -16 6 -23z m-66 -31 c-8 -8 -9 -4 -5 13 4 13 8 18 11 10 2 -7 -1
-18 -6 -23z m43 22 c-3 -5 -10 -10 -16 -10 -5 0 -9 5 -9 10 0 6 7 10 16 10 8
0 12 -4 9 -10z m-1195 -42 c0 -11 4 -27 9 -37 5 -9 12 -35 14 -57 5 -46 44
-134 68 -154 3 -3 9 -17 13 -32 5 -23 4 -26 -11 -21 -10 3 -34 18 -53 33 -19
15 -66 42 -103 60 -74 36 -85 34 -88 -20 -1 -14 -3 -41 -5 -60 -2 -19 -5 -61
-8 -94 -3 -32 -12 -69 -21 -82 -8 -13 -15 -32 -15 -43 0 -36 -66 -49 -93 -17
-10 11 -16 14 -12 6 4 -8 -5 0 -21 19 -15 19 -29 44 -30 56 -1 12 -7 39 -12
61 -5 21 -11 62 -12 89 -1 28 -3 68 -5 90 -3 57 15 117 37 123 10 2 18 8 18
13 0 5 7 9 16 9 9 0 12 5 8 13 -5 7 -2 7 10 -2 13 -11 16 -11 14 -2 -2 8 4 15
12 16 87 17 87 17 119 -35 11 -19 22 -29 22 -22 1 6 3 17 4 22 1 6 3 15 4 21
0 5 6 7 11 4 6 -3 10 -1 10 5 0 10 41 31 65 35 6 0 9 6 8 11 -1 6 5 11 13 11
8 0 14 -9 14 -19z m1195 -8 c3 -5 2 -10 -4 -10 -5 0 -13 5 -16 10 -3 6 -2 10
4 10 5 0 13 -4 16 -10z m-1111 -9 c9 -15 15 -171 6 -171 -27 0 -44 59 -35 126
6 51 16 66 29 45z m1107 -224 c-6 -8 -7 -18 -3 -22 4 -5 1 -5 -6 -1 -10 6 -10
11 -1 22 6 8 14 14 16 14 3 0 0 -6 -6 -13z m1472 -107 c3 0 4 8 1 18 -5 14 -4
15 5 2 10 -13 12 -13 21 0 8 12 10 10 10 -9 0 -16 -4 -21 -14 -18 -10 4 -12 0
-8 -15 4 -18 0 -16 -24 9 -23 25 -33 29 -51 22 -13 -5 -23 -6 -23 -3 0 14 46
21 61 8 8 -8 18 -14 22 -14z m-1546 -75 c0 -8 -4 -12 -9 -9 -5 3 -6 10 -3 15
9 13 12 11 12 -6z m-741 -90 c38 -22 55 -42 59 -70 3 -24 -8 -22 -62 11 -47
28 -67 34 -114 34 -61 0 -92 -7 -84 -20 3 -4 -2 -13 -9 -19 -24 -20 -7 24 17
46 66 58 117 63 193 18z m1285 -76 c-9 -4 -22 -2 -28 3 -7 6 -19 8 -26 5 -8
-3 -20 -2 -27 3 -9 6 -2 15 26 32 l38 25 17 -31 c15 -29 15 -31 0 -37z m-554
36 c0 -8 -4 -12 -9 -9 -5 3 -6 10 -3 15 9 13 12 11 12 -6z m-162 -5 c9 8 15 8
20 0 4 -6 1 -9 -7 -8 -7 2 -12 -3 -10 -11 3 -12 0 -12 -12 -1 -9 7 -16 18 -15
24 0 6 3 6 6 -2 4 -9 8 -10 18 -2z m885 -41 c0 -14 -29 -17 -34 -4 -3 9 2 13
15 12 10 -1 19 -4 19 -8z m-1680 -19 c-6 -11 -8 -25 -5 -30 3 -6 1 -10 -4 -10
-12 0 -13 6 -5 38 4 12 10 22 16 22 5 0 4 -9 -2 -20z m1541 -13 c-1 -4 -1 -14
-1 -22 0 -8 -8 -15 -17 -15 -12 0 -14 3 -6 8 8 5 9 13 3 22 -6 9 -10 10 -10 3
0 -6 -9 -10 -20 -8 -11 2 -22 -1 -25 -6 -4 -5 -11 -6 -17 -3 -6 4 -23 8 -37 9
-48 2 -27 18 26 19 28 1 55 4 58 8 8 8 47 -5 46 -15z m-1555 -82 c1 -25 -2
-45 -7 -45 -5 0 -9 20 -9 45 0 59 15 59 16 0z m1826 -37 c-7 -7 -12 -8 -12 -2
0 6 3 14 7 17 3 4 9 5 12 2 2 -3 -1 -11 -7 -17z m-1697 -43 c0 -27 -3 -41 -10
-37 -5 3 -5 -1 2 -9 6 -8 15 -37 18 -64 10 -74 9 -85 -6 -85 -5 0 -8 4 -5 9 4
5 2 11 -3 13 -4 1 -12 14 -16 27 -4 14 -3 21 2 18 5 -4 10 0 10 8 0 8 -4 12
-9 9 -4 -3 -8 29 -8 70 0 47 4 76 11 76 5 0 7 6 3 13 -4 6 -3 8 1 4 5 -4 9
-27 10 -52z m-128 3 c-3 -8 -6 -5 -6 6 -1 11 2 17 5 13 3 -3 4 -12 1 -19z
m1938 -7 c3 -5 1 -12 -5 -16 -5 -3 -10 1 -10 9 0 18 6 21 15 7z m-1409 -29
c-3 -3 -1 -11 5 -19 9 -10 8 -13 -4 -13 -20 0 -35 22 -19 28 7 2 9 9 6 14 -5
7 -2 8 5 4 7 -5 10 -11 7 -14z m-92 -62 c-2 -71 -14 -76 -14 -7 0 32 3 57 8
57 4 0 6 -23 6 -50z m376 15 c-7 -9 -15 -13 -19 -10 -3 3 1 10 9 15 21 14 24
12 10 -5z m-783 -17 c-3 -8 -6 -5 -6 6 -1 11 2 17 5 13 3 -3 4 -12 1 -19z
m523 17 c0 -7 -30 -13 -34 -7 -3 4 4 9 15 9 10 1 19 0 19 -2z m-2 -96 c-20
-16 -20 -17 -2 -27 10 -6 15 -12 9 -12 -5 -1 -18 -3 -28 -5 -14 -3 -17 1 -12
12 3 9 0 20 -7 25 -10 6 -10 8 1 8 11 0 11 3 1 15 -11 13 -10 14 4 9 9 -3 16
-10 16 -15 0 -4 6 -6 14 -3 8 3 12 13 9 22 -4 15 -3 15 6 2 8 -12 6 -19 -11
-31z m345 -24 c4 -8 1 -17 -5 -21 -7 -4 -8 -3 -4 4 4 8 0 12 -11 12 -15 0 -16
2 -3 10 19 12 17 13 23 -5z m-587 -63 c14 -9 4 -36 -14 -40 -8 -1 -11 2 -7 8
3 5 0 10 -8 10 -8 0 -17 7 -21 15 -4 11 1 15 17 15 12 0 27 -4 33 -8z m726
-21 c11 6 18 5 21 -5 3 -8 -1 -13 -11 -12 -9 0 -16 -5 -14 -11 1 -7 -2 -13 -8
-13 -5 0 -10 5 -10 11 0 7 -8 18 -17 26 -17 13 -16 13 2 4 13 -5 27 -6 37 0z
m109 -52 c12 -19 11 -29 -1 -29 -5 0 -10 9 -10 20 0 12 -5 17 -14 14 -8 -3
-16 -1 -20 4 -3 5 4 8 15 7 11 -1 25 -8 30 -16z m-107 -7 c3 -5 -1 -9 -9 -9
-8 0 -12 4 -9 9 3 4 7 8 9 8 2 0 6 -4 9 -8z m-34 -22 c0 -5 -8 -10 -17 -10
-15 0 -16 2 -3 10 19 12 20 12 20 0z m156 -22 c4 -7 4 -10 -1 -6 -4 4 -14 3
-22 -4 -11 -8 -12 -7 -7 6 7 19 20 21 30 4z m-936 -28 c-9 -6 -10 -10 -3 -10
6 0 15 5 18 10 12 19 27 -2 21 -29 -6 -25 -6 -25 9 -7 8 11 15 15 15 9 0 -6
-6 -16 -13 -22 -10 -8 -20 -4 -40 17 -26 27 -27 42 -3 42 6 0 4 -5 -4 -10z
m1014 -41 c-3 -5 -10 -7 -15 -3 -5 3 -7 10 -3 15 3 5 10 7 15 3 5 -3 7 -10 3
-15z m-769 -109 c-3 -5 1 -10 10 -10 10 0 13 -5 9 -12 -5 -7 -3 -8 7 -2 30 19
69 4 69 -27 0 -13 4 -18 12 -13 7 4 8 3 4 -5 -4 -6 -12 -9 -17 -6 -5 3 -6 -1
-3 -9 3 -9 10 -14 14 -11 4 3 11 -2 14 -10 3 -9 -1 -18 -9 -22 -10 -3 -13 -12
-10 -23 3 -10 1 -21 -4 -25 -7 -4 -8 1 -5 12 5 15 4 15 -4 3 -6 -8 -9 -17 -7
-20 2 -3 6 -24 8 -45 7 -54 18 -95 26 -95 4 0 6 -16 6 -35 -1 -20 4 -47 11
-60 7 -13 10 -26 6 -29 -3 -3 0 -6 7 -6 7 0 10 -4 7 -9 -3 -5 1 -14 9 -21 11
-9 12 -16 5 -25 -8 -9 -7 -14 1 -17 12 -4 14 -11 26 -70 3 -16 8 -28 12 -28 3
0 7 -17 7 -38 1 -20 5 -53 8 -72 4 -19 -12 24 -35 95 -22 72 -44 139 -49 150
-14 36 -132 399 -145 448 -11 40 -11 47 1 47 9 0 12 -4 9 -10z m969 -49 c4 -5
-3 -7 -14 -4 -23 6 -26 13 -6 13 8 0 17 -4 20 -9z m3486 -3 c43 -11 60 -21 60
-34 0 -8 6 -14 14 -14 12 0 28 -22 30 -43 1 -4 6 -11 11 -15 6 -4 11 -14 12
-22 1 -8 6 -33 12 -55 5 -21 6 -44 2 -50 -5 -5 -5 -19 -1 -30 4 -11 4 -27 0
-35 -5 -8 -9 -19 -10 -25 -6 -24 -26 -61 -40 -73 -8 -8 -9 -11 -2 -7 19 9 14
0 -10 -21 -14 -13 -19 -14 -14 -4 4 8 -2 4 -13 -9 -12 -13 -21 -18 -21 -12 0
9 -5 9 -20 1 -44 -24 -214 5 -235 40 -4 6 -12 7 -18 4 -7 -4 -9 -4 -6 0 4 4
-4 19 -17 33 -13 14 -22 28 -19 31 3 3 -1 12 -7 20 -17 20 -20 36 -22 124 -1
45 3 74 8 70 5 -3 7 2 3 12 -4 10 -3 15 3 11 6 -3 10 -2 10 3 0 5 9 19 19 31
11 13 21 26 23 29 2 4 23 16 47 28 35 16 61 20 115 18 39 -1 78 -4 86 -6z
m-2570 -47 c0 -5 -17 -17 -37 -26 -21 -10 -41 -22 -44 -27 -9 -15 -49 -12 -94
5 -40 16 -40 16 -9 17 17 0 53 6 80 14 27 8 60 17 74 19 14 2 26 5 28 6 1 0 2
-3 2 -8z m105 -121 c-2 -8 -4 -16 -5 -17 -7 -9 -4 -31 7 -52 6 -14 10 -28 7
-33 -3 -4 3 -8 13 -9 17 0 17 -1 0 -8 -10 -4 -18 -10 -18 -14 1 -4 -2 -7 -6
-6 -5 1 -7 6 -5 12 2 6 -4 5 -12 -3 -9 -7 -16 -8 -16 -2 0 15 -28 23 -36 10
-4 -6 -3 -8 4 -4 6 4 10 -1 9 -13 -1 -15 -5 -17 -18 -11 -9 5 -20 6 -24 2 -5
-4 -5 -1 -1 6 4 6 2 12 -4 12 -7 0 -8 6 -1 19 6 10 7 21 4 25 -3 3 -1 6 6 6 7
0 10 4 7 9 -3 5 3 11 14 14 11 3 20 1 20 -4 0 -5 5 -9 10 -9 6 0 9 18 6 44 -3
40 -2 44 19 42 14 0 21 -6 20 -16z m-105 -14 c0 -8 -10 -18 -21 -21 -15 -5
-18 -10 -9 -15 17 -10 -26 -54 -69 -68 -42 -15 -44 -15 -36 1 4 6 1 5 -7 -3
-15 -18 -62 -25 -52 -8 4 7 0 7 -13 -1 -14 -7 -23 -7 -30 0 -6 6 -17 11 -25
12 -8 2 -25 13 -38 25 -18 16 -27 19 -37 11 -12 -11 -15 -7 -12 17 0 4 -5 10
-11 14 -8 5 -9 10 -2 14 6 4 17 0 24 -7 10 -12 15 -11 30 7 14 17 17 17 12 4
-3 -10 -1 -18 5 -18 6 0 11 5 11 10 0 13 50 13 70 0 12 -8 12 -10 1 -10 -8 0
-11 -3 -7 -7 10 -10 36 -12 36 -3 0 5 12 7 26 5 16 -1 32 5 42 15 8 10 22 16
30 12 9 -3 13 -1 9 5 -3 5 0 10 8 10 8 0 12 -4 9 -9 -3 -4 2 -8 11 -8 9 0 14
4 11 9 -4 5 0 12 6 14 22 9 28 7 28 -7z m171 -14 c-6 -12 -11 -30 -11 -41 0
-14 -6 -21 -20 -21 -23 0 -25 8 -5 33 7 11 11 26 8 35 -4 10 -2 13 5 8 6 -3
14 -1 17 5 12 19 17 1 6 -19z m-161 -16 c0 -3 -4 -8 -10 -11 -5 -3 -10 -1 -10
4 0 6 5 11 10 11 6 0 10 -2 10 -4z m110 -6 c0 -5 -2 -10 -4 -10 -3 0 -8 5 -11
10 -3 6 -1 10 4 10 6 0 11 -4 11 -10z m-28 -123 c-5 -7 -8 -21 -5 -32 10 -52
9 -74 -3 -64 -9 8 -12 4 -10 -15 2 -15 -1 -23 -7 -19 -5 3 -7 0 -5 -8 3 -8 -4
-19 -15 -25 -17 -10 -18 -12 -3 -17 11 -5 15 -3 10 5 -5 7 -3 8 6 3 10 -6 7
-13 -13 -29 -15 -12 -27 -26 -27 -32 0 -5 -9 -17 -20 -27 -12 -10 -18 -23 -15
-30 4 -6 1 -5 -7 3 -17 20 -35 22 -35 5 0 -8 4 -12 8 -10 4 3 9 -1 12 -9 4
-10 0 -12 -15 -8 -14 3 -19 1 -14 -6 3 -6 -3 -13 -14 -17 -11 -4 -18 -12 -14
-18 3 -7 -1 -4 -9 5 -8 10 -17 15 -20 11 -4 -3 -8 -1 -8 5 -1 7 -2 18 -3 25
-1 6 2 18 7 25 6 8 6 12 -2 12 -6 0 -11 6 -11 13 0 7 -6 22 -14 33 -13 16 -17
17 -28 5 -11 -12 -11 -13 1 -6 14 8 31 -10 30 -35 0 -9 -6 -4 -14 10 -7 14
-17 25 -22 25 -4 0 -8 7 -8 15 -1 8 -5 14 -11 13 -5 -1 -10 7 -11 17 -2 19 26
50 49 54 7 1 24 8 38 16 14 8 27 15 30 15 22 2 68 29 63 38 -3 6 -1 7 6 3 6
-4 9 -11 6 -16 -3 -5 -1 -11 4 -15 11 -6 46 53 43 73 -2 6 4 12 13 12 12 0 14
-4 5 -19 -17 -33 -11 -34 19 -5 17 15 27 32 24 37 -3 6 -1 7 6 3 8 -5 9 -12 3
-19z m-516 -157 c18 4 44 5 59 3 22 -5 25 -10 21 -34 -2 -16 -1 -29 4 -29 5 0
7 -17 5 -37 -5 -57 -6 -60 -15 -38 -5 11 -9 14 -9 8 -1 -7 -6 -13 -12 -13 -6
0 -9 7 -5 15 4 13 2 13 -14 5 -10 -6 -23 -10 -27 -9 -20 3 -27 -2 -13 -11 9
-6 10 -10 3 -10 -6 0 -19 7 -27 16 -9 8 -16 12 -16 7 0 -5 5 -14 11 -20 9 -9
6 -10 -10 -6 -13 3 -20 11 -17 18 3 8 -2 16 -10 19 -9 3 -12 1 -9 -4 3 -6 1
-10 -4 -10 -6 0 -11 5 -11 11 0 6 -8 18 -18 27 -10 10 -12 13 -5 8 8 -5 15 -7
16 -5 1 2 8 12 16 21 10 13 10 22 1 39 -8 14 -8 19 -1 15 6 -4 11 0 11 8 0 12
5 13 22 7 12 -4 37 -5 54 -1z m1291 -1952 c-3 -8 -6 -5 -6 6 -1 11 2 17 5 13
3 -3 4 -12 1 -19z m-1497 -1293 c0 -8 -4 -15 -10 -15 -5 0 -7 7 -4 15 4 8 8
15 10 15 2 0 4 -7 4 -15z m-10 -51 c0 -8 -5 -12 -10 -9 -6 4 -8 11 -5 16 9 14
15 11 15 -7z m11 -51 c2 1 1 -2 -4 -8 -5 -6 -11 -4 -17 5 -15 23 -11 37 4 18
7 -10 15 -17 17 -15z m-17 -38 c-4 -8 -8 -15 -10 -15 -2 0 -4 7 -4 15 0 8 4
15 10 15 5 0 7 -7 4 -15z"/>
<path d="M3410 6010 c0 -5 5 -10 11 -10 5 0 7 5 4 10 -3 6 -8 10 -11 10 -2 0
-4 -4 -4 -10z"/>
<path d="M3311 5982 c-14 -27 -12 -35 8 -23 7 5 11 17 9 27 -4 17 -5 17 -17
-4z"/>
<path d="M3387 5969 c7 -7 15 -10 18 -7 3 3 -2 9 -12 12 -14 6 -15 5 -6 -5z"/>
<path d="M3205 5920 c3 -5 8 -10 11 -10 2 0 4 5 4 10 0 6 -5 10 -11 10 -5 0
-7 -4 -4 -10z"/>
<path d="M3258 5766 c-22 -16 -23 -23 -3 -23 8 0 12 4 9 9 -4 5 0 9 7 7 8 -1
21 -1 29 0 13 1 13 2 0 11 -19 12 -21 12 -42 -4z"/>
<path d="M3240 5649 c0 -5 5 -7 10 -4 6 3 10 8 10 11 0 2 -4 4 -10 4 -5 0 -10
-5 -10 -11z"/>
<path d="M3236 5552 c-7 -12 12 -38 21 -28 4 5 2 11 -5 13 -6 3 -10 9 -6 14 3
5 3 9 0 9 -3 0 -7 -4 -10 -8z"/>
<path d="M3900 5160 c-9 -6 -10 -10 -3 -10 6 0 15 5 18 10 8 12 4 12 -15 0z"/>
<path d="M3043 5153 c4 -3 1 -13 -6 -22 -11 -14 -10 -14 5 -2 16 12 16 31 1
31 -4 0 -3 -3 0 -7z"/>
<path d="M3949 5143 c-13 -16 -12 -17 4 -4 16 13 21 21 13 21 -2 0 -10 -8 -17
-17z"/>
<path d="M3074 5091 c4 -5 13 -8 21 -7 25 4 25 12 -1 14 -14 1 -23 -2 -20 -7z"/>
<path d="M2950 4929 c0 -5 5 -7 10 -4 6 3 10 8 10 11 0 2 -4 4 -10 4 -5 0 -10
-5 -10 -11z"/>
<path d="M4335 4879 c-4 -6 -5 -12 -2 -15 2 -3 7 2 10 11 7 17 1 20 -8 4z"/>
<path d="M4167 4865 c10 -7 21 -11 25 -9 16 10 7 19 -18 20 -23 2 -24 1 -7
-11z"/>
<path d="M4139 4852 c-1 -4 -1 -10 0 -14 0 -5 -5 -7 -11 -5 -8 1 -12 -6 -10
-17 2 -12 -1 -16 -10 -10 -7 4 -10 4 -6 -1 4 -4 3 -14 -3 -21 -7 -8 -7 -14 1
-19 6 -4 9 -1 8 6 -2 8 10 16 27 19 28 5 35 14 39 49 1 13 -33 26 -35 13z"/>
<path d="M4185 4829 c-4 -6 -5 -12 -2 -15 2 -3 7 2 10 11 7 17 1 20 -8 4z"/>
<path d="M3888 4473 c7 -3 16 -2 19 1 4 3 -2 6 -13 5 -11 0 -14 -3 -6 -6z"/>
<path d="M3498 4403 c7 -3 16 -2 19 1 4 3 -2 6 -13 5 -11 0 -14 -3 -6 -6z"/>
<path d="M2685 4360 c-3 -6 1 -7 9 -4 18 7 21 14 7 14 -6 0 -13 -4 -16 -10z"/>
<path d="M2640 4343 c0 -5 5 -15 10 -23 7 -12 9 -10 7 8 -1 19 -17 33 -17 15z"/>
<path d="M2686 4327 c3 -10 9 -15 12 -12 3 3 0 11 -7 18 -10 9 -11 8 -5 -6z"/>
<path d="M2674 4277 l-19 -22 24 20 c21 18 24 18 18 3 -4 -10 -2 -18 3 -18 16
0 20 17 6 29 -10 8 -17 6 -32 -12z"/>
<path d="M4410 3690 c0 -5 5 -10 11 -10 5 0 7 5 4 10 -3 6 -8 10 -11 10 -2 0
-4 -4 -4 -10z"/>
</g>
</svg>
